<svg xmlns="http://www.w3.org/2000/svg" viewBox="0 0 100 100" fill="none" stroke="#374151" stroke-linecap="round" stroke-linejoin="round">
  <style>
    @media (prefers-color-scheme: dark) {
      :root { stroke: #d1d5db; }
    }
  </style>
  <circle cx="50" cy="50" r="46" stroke-width="4" />
  <circle cx="50" cy="50" r="38" stroke-width="2" />
  <circle cx="50" cy="50" r="12" stroke-width="2.5" />
  <g stroke-width="2">
    <path d="M50 38V17" />
    <path d="M56 39.6 66.5 21.4" />
    <path d="m60.4 44 18.2-10.5" />
    <path d="M62 50h21" />
    <path d="m60.4 56 18.2 10.5" />
    <path d="m56 60.4 10.5 18.2" />
    <path d="M50 62v21" />
    <path d="M44 60.4 33.5 78.6" />
    <path d="m39.6 56-18.2 10.5" />
    <path d="M38 50H17" />
    <path d="M39.6 44 21.4 33.5" />
    <path d="M44 39.6 33.5 21.4" />
  </g>
  <g stroke-width="2.5">
    <path d="M48 26h4" />
    <path d="m61.3 29.4 3.4 2" />
    <path d="m70.6 38.7 2 3.4" />
    <path d="M74 48v4" />
    <path d="m70.6 61.3 2 3.4" />
    <path d="m61.3 70.6 3.4-2" />
    <path d="M48 74h4" />
    <path d="m35.3 68.6 3.4 2" />
    <path d="m27.4 57.9 2 3.4" />
    <path d="M26 48v4" />
    <path d="m27.4 42.1 2-3.4" />
    <path d="m35.3 31.4 3.4-2" />
  </g>
</svg>
